<svg id="Ebene_1" data-name="Ebene 1" xmlns="http://www.w3.org/2000/svg" xmlns:xlink="http://www.w3.org/1999/xlink"
     viewBox="0 0 40.97 40.97">
    <defs>
        <style>.cls-1{fill:none;}.cls-2{clip-path:url(#clip-path);}.cls-3{fill:#fe7f02;}.cls-4{fill:#fff;}</style>
        <clipPath id="clip-path" transform="translate(-192.91 -400.01)">
            <rect class="cls-1" x="192.91" y="400.01" width="208.86" height="40.97"/>
        </clipPath>
    </defs>
    <g class="cls-2">
        <rect class="cls-3" width="40.97" height="40.97" rx="7.26"/>
        <path class="cls-4"
              d="M199.22,407.55l8.86,8.85a2.88,2.88,0,0,0-.21,1.13v.33h-9v-8.69a3.4,3.4,0,0,1,.37-1.62m-.37,15.58h9v.32a3.23,3.23,0,0,0,.24,1.11l-8.86,8.85a4,4,0,0,1-.4-1.59Zm11.91-5.27H216v5.27h-5.27Zm-1.45,7.95a2.81,2.81,0,0,0,1.13.21h.32v9h-8.69a3.43,3.43,0,0,1-1.62-.37ZM216,426h.33a3.2,3.2,0,0,0,1.1-.24l8.86,8.86a4,4,0,0,1-1.6.4H216Zm11.54,7.42-8.86-8.86a2.8,2.8,0,0,0,.22-1.13v-.32h9v8.69a3.43,3.43,0,0,1-.37,1.62m.37-15.58h-9v-.33a3.5,3.5,0,0,0-.24-1.1l8.85-8.86a4,4,0,0,1,.4,1.6Zm-10.45-2.68a2.88,2.88,0,0,0-1.13-.22H216v-9h8.69a3.4,3.4,0,0,1,1.62.37Zm-6.73-.22h-.32a3.54,3.54,0,0,0-1.11.24l-8.86-8.85a4,4,0,0,1,1.6-.4h8.69Zm-14.16-6.43v9.33h-1.94v5.27h1.94v9.33s0,4.83,4.83,4.83h9.33v1.94H216v-1.94h9.33s4.83,0,4.83-4.83v-9.33h1.94v-5.27h-1.94v-9.33s0-4.83-4.83-4.83H216v-1.94h-5.27v1.94h-9.33s-4.83,0-4.83,4.83"
              transform="translate(-192.91 -400.01)"/>
    </g>
</svg>